<?xml version="1.0" encoding="UTF-8"?>
<svg id="Layer_1" data-name="Layer 1" xmlns="http://www.w3.org/2000/svg" viewBox="0 0 679.65 271.49">
  <defs>
    <style>
      .cls-1 {
        fill: #fff;
      }
    </style>
  </defs>
  <path class="cls-1" d="M364.18,127.49h-11.08c0-3.9-2.21-6.42-6.36-6.42-4.94,0-6.83,3.21-6.83,7.85v3.16c0,4.64,2,7.86,6.72,7.86s6.83-2.32,6.83-6.22h10.72c0,9.34-6.36,14.38-17.39,14.38-12.35,0-18.76-5.98-18.76-17.59s6.41-17.59,18.76-17.59c10.51,0,17.39,5.09,17.39,14.57Z"/>
  <path class="cls-1" d="M407.94,130.5c0,11.61-7.2,17.59-19.54,17.59s-19.49-5.98-19.49-17.59,7.15-17.59,19.49-17.59,19.54,5.98,19.54,17.59ZM380.78,128.92v3.16c0,4.64,2.52,7.86,7.62,7.86s7.67-3.21,7.67-7.86v-3.16c0-4.64-2.57-7.85-7.67-7.85s-7.62,3.21-7.62,7.85Z"/>
  <path class="cls-1" d="M414.19,113.51h11.61v25.29h18.55v8.69h-30.16v-33.99Z"/>
  <path class="cls-1" d="M480.28,147.5v-12.25c0-5.14.84-10.77.84-10.77h-.21l-6.67,23.02h-9.09l-6.72-22.97h-.21s.95,5.58.95,10.72v12.25h-10.66v-33.99h16.39l5.46,19.61h.21l5.41-19.61h15.81v33.99h-11.5Z"/>
  <path class="cls-1" d="M498.82,113.51h31.26v8.15h-19.65v4.69h16.81v7.81h-16.81v5.19h20.02v8.15h-31.63v-33.99Z"/>
  <path class="cls-1" d="M537.27,147.5v-33.99h11.61v33.99h-11.61Z"/>
  <path class="cls-1" d="M581.4,147.5l-1.52-4.79h-12.66l-1.52,4.79h-11.87l13.19-33.99h13.5l13.19,33.99h-12.29ZM569.63,135.1h7.83l-3.78-12.1h-.21l-3.84,12.1Z"/>
  <path class="cls-1" d="M340.32,198.74l-11.44-35.09h11.07l6.47,23.46h.19l6.52-23.46h10.6l-11.4,35.09h-12.01Z"/>
  <path class="cls-1" d="M368.5,198.74v-35.09h10.36v35.09h-10.36Z"/>
  <path class="cls-1" d="M407.89,198.74l-1.36-4.95h-11.3l-1.36,4.95h-10.6l11.77-35.09h12.05l11.77,35.09h-10.97ZM397.39,185.94h6.99l-3.38-12.5h-.19l-3.42,12.5Z"/>
  <path class="cls-1" d="M433.73,199.36c-8.35,0-13.36-3.83-13.36-12.8v-.46h9.71v.41c0,3.26,1.13,4.44,3.33,4.44s3.33-1.17,3.33-4.44v-22.85h10.36v22.9c0,8.98-5.02,12.8-13.37,12.8Z"/>
  <path class="cls-1" d="M474.43,198.74l-1.36-4.95h-11.3l-1.36,4.95h-10.6l11.77-35.09h12.05l11.77,35.09h-10.97ZM463.93,185.94h6.99l-3.38-12.5h-.19l-3.42,12.5Z"/>
  <path class="cls-1" d="M512.37,198.74l-13.55-17.04v17.04h-9.52v-35.09h9.05l13.55,17.29v-17.29h9.52v35.09h-9.05Z"/>
  <path class="cls-1" d="M546.92,172.63v26.12h-10.36v-26.12h-10.6v-8.98h31.51v8.98h-10.55Z"/>
  <path class="cls-1" d="M562.21,163.65h27.9v8.42h-17.54v4.85h15.01v8.06h-15.01v5.36h17.87v8.42h-28.23v-35.09Z"/>
  <path class="cls-1" d="M172.73,83.44c-1.3,0-2.59-.49-3.58-1.48l-7.33-7.33c-1.97-1.97-1.97-5.18,0-7.16,1.97-1.98,5.18-1.97,7.16,0l7.33,7.33c1.97,1.97,1.97,5.18,0,7.16-.99.99-2.28,1.48-3.58,1.48Z"/>
  <path class="cls-1" d="M217.01,83.45c-1.29,0-2.59-.49-3.58-1.48-1.98-1.98-1.98-5.18,0-7.16l7.34-7.34c1.98-1.98,5.18-1.98,7.16,0,1.98,1.98,1.98,5.18,0,7.16l-7.34,7.34c-.99.99-2.28,1.48-3.58,1.48Z"/>
  <path class="cls-1" d="M172.73,127.07l-22.21-22.32c-14.73-14.8-38.79-14.8-53.52,0-14.73,14.8-14.73,38.98,0,53.78,14.73,14.8,38.79,14.8,53.52,0l22.21-22.32c2.51-2.53,2.51-6.62,0-9.15ZM145.61,149c-4.74,4.77-11.01,7.15-17.27,7.15-.39,0-.78,0-1.17-.03-.78-.04-1.56-.11-2.34-.22-.39-.06-.77-.12-1.16-.2-.77-.15-1.54-.33-2.29-.56-.38-.11-.75-.23-1.13-.36-.75-.26-1.48-.56-2.21-.89-.72-.33-1.43-.71-2.13-1.12-1.73-1.02-3.36-2.28-4.85-3.77-.36-.37-.71-.75-1.05-1.13-.03-.04-.07-.08-.1-.12-.07-.08-.13-.15-.2-.23-.25-.29-.48-.59-.72-.89-.09-.11-.18-.23-.26-.35-.29-.39-.57-.79-.83-1.2-.05-.08-.1-.16-.14-.23-.22-.35-.43-.7-.63-1.06-.04-.07-.08-.14-.12-.21s-.08-.14-.12-.22c-.18-.33-.34-.66-.5-.99-.06-.13-.12-.25-.18-.38-.19-.42-.37-.84-.54-1.27-.05-.12-.09-.23-.13-.35-.13-.35-.26-.71-.37-1.07-.02-.07-.04-.13-.06-.2-.03-.1-.06-.19-.09-.29-.13-.44-.26-.88-.36-1.32-.1-.42-.18-.83-.26-1.25,0-.03-.01-.06-.02-.09-.02-.13-.05-.27-.07-.4-.05-.31-.1-.62-.14-.94-.02-.14-.03-.28-.05-.41,0-.04,0-.08-.01-.12-.03-.29-.06-.58-.08-.87,0-.07,0-.13-.01-.2,0-.13-.01-.26-.02-.39-.02-.39-.03-.79-.03-1.18,0-.08,0-.17,0-.25,0-.06,0-.12,0-.18h0c0-.13.01-.26.01-.39,0,.03,0,.05,0,.08,0-.22.01-.45.03-.67,0-.07,0-.13,0-.2,0-.13.02-.27.03-.4,0,.03,0,.07,0,.1.02-.22.03-.44.06-.65,0-.08.01-.15.02-.23.02-.14.04-.27.05-.41,0,.04,0,.08-.01.12.03-.21.05-.42.08-.63.01-.08.02-.17.04-.25.02-.14.05-.28.07-.42,0,.04-.01.09-.02.13.04-.2.07-.41.11-.61.02-.09.04-.19.06-.28.03-.14.06-.28.09-.42-.01.05-.02.1-.03.15.04-.2.09-.39.13-.59.02-.1.05-.2.08-.3.04-.14.08-.28.12-.42-.01.05-.03.11-.04.16.05-.19.1-.38.16-.56.03-.11.07-.21.1-.32.04-.14.09-.29.14-.43-.02.06-.04.12-.06.17.06-.18.12-.36.18-.54.04-.11.08-.23.12-.34.05-.14.11-.29.16-.43-.02.06-.05.12-.07.18.07-.17.13-.35.2-.52.05-.12.1-.24.15-.35.06-.14.12-.29.19-.43-.03.07-.06.13-.08.2.07-.17.14-.33.22-.5.06-.12.12-.24.18-.37.07-.15.14-.29.21-.43-.04.07-.07.14-.1.21.08-.16.16-.32.24-.48.07-.13.14-.25.2-.37.08-.15.16-.29.24-.43-.04.07-.08.15-.12.22.09-.15.17-.31.26-.46.08-.13.16-.25.24-.38.09-.14.18-.29.27-.43-.05.07-.09.15-.14.23.09-.14.18-.29.27-.43.09-.13.18-.26.27-.39.1-.14.2-.29.3-.43-.05.08-.11.15-.16.23.09-.14.19-.27.28-.41.1-.13.2-.26.3-.39.11-.14.22-.29.33-.43-.06.07-.11.15-.17.22.09-.12.19-.25.28-.37.11-.13.23-.26.34-.4.12-.14.23-.28.36-.42-.05.06-.1.11-.15.17.08-.1.16-.2.25-.29.12-.14.25-.27.38-.4.13-.14.25-.27.38-.4.03-.03.06-.06.09-.1.04-.04.08-.07.12-.11.09-.09.19-.18.29-.27.12-.11.23-.23.34-.33.03-.03.06-.05.08-.07.14-.12.28-.24.41-.36.17-.15.35-.31.53-.45.13-.1.26-.2.38-.3.2-.15.39-.31.59-.46.12-.09.24-.17.36-.26.21-.15.42-.3.64-.44.12-.08.24-.15.36-.23.22-.14.43-.28.65-.41.13-.08.27-.16.41-.23.21-.12.41-.23.62-.34.17-.09.34-.17.51-.26.17-.09.35-.18.52-.26.22-.1.45-.2.67-.3.12-.05.24-.11.36-.16.3-.12.6-.24.9-.35.04-.02.08-.03.12-.05,8.65-3.15,18.77-1.27,25.67,5.67l.23.23,17.04,17.12-17.27,17.36Z"/>
  <path class="cls-1" d="M293.19,104.75c-14.73-14.8-38.79-14.8-53.52,0l-22.21,22.32c-2.51,2.53-2.51,6.62,0,9.15l22.21,22.32c14.73,14.8,38.79,14.8,53.52,0,14.73-14.8,14.73-38.98,0-53.78ZM286.21,132.83c0,.13-.01.26-.02.39,0,.07,0,.13-.01.2-.02.29-.05.58-.08.87,0,.04,0,.08-.01.12-.02.14-.03.28-.05.41-.04.31-.09.62-.14.94-.02.13-.04.27-.07.4,0,.03-.01.06-.02.09-.08.42-.16.84-.26,1.25-.11.44-.23.88-.36,1.32-.03.1-.06.19-.09.29-.02.07-.04.13-.06.2-.12.36-.24.72-.37,1.07-.04.12-.09.23-.13.35-.17.43-.35.85-.54,1.27-.06.13-.12.25-.18.38-.16.33-.33.66-.5.99-.04.07-.08.14-.12.22-.04.07-.08.14-.12.21-.2.36-.41.71-.63,1.06-.05.08-.09.16-.14.23-.26.41-.54.8-.83,1.2-.09.12-.18.23-.26.35-.23.3-.47.6-.72.89-.07.08-.13.15-.2.23-.03.04-.07.08-.1.12-.34.38-.68.76-1.05,1.13-1.48,1.49-3.11,2.75-4.85,3.77-.69.41-1.4.78-2.12,1.12-.72.34-1.46.63-2.21.89-.37.13-.75.25-1.13.36-.76.22-1.52.41-2.29.56-.39.07-.77.14-1.16.2-.78.11-1.56.19-2.34.22-.39.02-.78.03-1.17.03-6.26,0-12.52-2.38-17.27-7.15l-17.27-17.36,17.04-17.12.23-.23c6.9-6.93,17.01-8.82,25.67-5.67.04.02.08.03.12.05.3.11.6.23.9.35.12.05.24.1.36.16.22.1.45.2.67.3.18.08.35.17.52.26.17.08.34.17.51.26.21.11.41.23.62.34.14.08.27.15.41.23.22.13.44.27.65.41.12.08.24.15.36.23.21.14.43.29.64.44.12.08.24.17.36.26.2.15.39.3.59.46.13.1.26.2.38.3.18.15.35.3.53.45.14.12.28.24.41.36.03.03.06.05.08.07.12.11.23.22.34.33.09.09.19.18.29.27.04.04.08.07.12.11.03.03.06.07.09.1.13.13.26.27.38.4.13.13.26.26.38.4.09.1.17.2.25.29-.05-.06-.1-.11-.15-.17.12.14.24.28.36.42.11.13.23.26.34.4.1.12.19.24.28.37-.06-.07-.11-.15-.17-.22.11.14.22.28.33.43.1.13.2.26.3.39.1.13.19.27.28.41-.05-.08-.1-.15-.16-.23.1.14.2.29.3.43.09.13.18.26.27.39.09.14.18.29.27.43-.05-.08-.09-.15-.14-.23.09.14.18.29.27.43.08.13.16.25.24.38.09.15.17.31.26.46-.04-.07-.08-.15-.12-.22.08.14.16.29.24.43.07.12.14.25.2.37.08.16.16.32.24.48-.03-.07-.07-.14-.1-.21.07.14.14.29.21.43.06.12.12.24.18.37.08.16.15.33.22.5-.03-.07-.06-.13-.08-.2.06.14.13.29.19.43.05.12.1.23.15.35.07.17.13.34.2.52-.02-.06-.04-.12-.07-.18.06.14.11.29.16.43.04.11.08.23.12.34.06.18.12.36.18.54-.02-.06-.04-.12-.06-.17.05.14.09.28.14.43.03.11.07.21.1.32.06.19.11.38.16.56-.01-.05-.03-.11-.04-.16.04.14.08.28.12.42.03.1.05.2.08.3.05.19.09.39.13.59-.01-.05-.02-.1-.03-.15.03.14.06.28.09.42.02.09.04.19.06.28.04.2.07.41.11.61,0-.04-.01-.09-.02-.13.02.14.05.28.07.42.01.08.03.17.04.25.03.21.06.42.08.63,0-.04,0-.08-.01-.12.02.14.04.27.05.41,0,.08.01.15.02.23.02.22.04.43.06.65,0-.03,0-.07,0-.1.01.13.02.27.03.4,0,.07,0,.13,0,.2.01.22.02.45.03.67,0-.03,0-.05,0-.08,0,.13.01.26.01.39h0c0,.06,0,.12,0,.18,0,.08,0,.17,0,.25,0,.39-.02.79-.03,1.18Z"/>
  <path class="cls-1" d="M181.91,108.61l12.84-12.91,17.3,17.38c2.52,2.54,6.61,2.54,9.14,0,2.52-2.54,2.52-6.65,0-9.18l-21.86-21.97c-2.52-2.54-6.61-2.54-9.14,0l-21.98,22.09c-1.21,1.22-1.89,2.87-1.89,4.59s.68,3.37,1.89,4.59l43.49,43.71v28.55c0,1.3-.56,2.54-1.54,3.39-8.67,7.51-21.75,7.5-30.41-.01l-.32-.27c-.98-.85-1.54-2.08-1.54-3.38v-3.38h13.07c3.57,0,6.46-2.91,6.46-6.49s-2.89-6.49-6.46-6.49h-13.07v-8.03h14.47c3.57,0,6.46-2.91,6.46-6.49s-2.89-6.49-6.46-6.49h-20.93c-3.57,0-6.46,2.91-6.46,6.49v30.89c0,5.08,2.19,9.89,6.02,13.21l.32.27c6.57,5.7,14.97,8.84,23.64,8.84h.02c8.67,0,17.06-3.13,23.63-8.82,3.83-3.32,6.03-8.14,6.03-13.22v-31.24c0-1.72-.68-3.37-1.89-4.59l-40.82-41.02Z"/>
  <path class="cls-1" d="M458.26,77.13l-1.82,5.45h3.67l-1.85-5.45ZM458.26,77.13l-1.82,5.45h3.67l-1.85-5.45ZM458.26,77.13l-1.82,5.45h3.67l-1.85-5.45ZM507.42,77.13l-1.83,5.45h3.67l-1.84-5.45ZM507.42,77.13l-1.83,5.45h3.67l-1.84-5.45ZM458.26,77.13l-1.82,5.45h3.67l-1.85-5.45ZM584.31,63.98h-246.05c-1.2,0-2.18.97-2.18,2.18v30.18c0,1.21.98,2.18,2.18,2.18h246.05c1.2,0,2.18-.97,2.18-2.18v-30.18c0-1.21-.98-2.18-2.18-2.18ZM506.12,68.95c.31,0,.59.05.82.14.23.09.52.23.86.41.25.14.46.25.61.31.16.06.32.09.49.09.52,0,.83-.31.91-.95h1.87c-.34,2.09-1.32,3.14-2.93,3.14-.31,0-.58-.05-.81-.14-.24-.09-.52-.23-.86-.41-.26-.14-.46-.25-.62-.31-.15-.06-.32-.1-.49-.1-.52,0-.83.32-.93.96h-1.84c.34-2.09,1.31-3.14,2.92-3.14ZM397.8,76.03h-5.49v3.01h4.85v2.8h-4.85v3.26h5.49v2.91h-9.12v-14.88h9.12v2.9ZM419,85.89c-.43.69-1.05,1.24-1.87,1.65-.82.41-1.79.61-2.91.61s-2.06-.17-2.92-.53c-.86-.35-1.55-.87-2.07-1.56-.52-.7-.79-1.53-.81-2.51h3.85c.06.56.25.98.57,1.27.33.28.75.43,1.28.43s.96-.12,1.27-.37c.31-.25.46-.59.46-1.03,0-.37-.12-.67-.37-.91-.24-.24-.55-.44-.91-.59-.36-.16-.87-.34-1.53-.53-.97-.3-1.75-.6-2.36-.89-.6-.3-1.13-.74-1.57-1.32-.43-.58-.65-1.33-.65-2.27,0-1.38.5-2.46,1.5-3.25,1-.78,2.31-1.18,3.92-1.18s2.96.4,3.97,1.18c1,.79,1.54,1.88,1.61,3.28h-3.92c-.03-.48-.21-.86-.53-1.14-.33-.27-.75-.41-1.25-.41-.44,0-.8.12-1.06.35-.27.23-.41.57-.41,1,0,.48.23.86.68,1.13.45.27,1.16.56,2.12.87.96.32,1.74.63,2.34.93.6.3,1.12.73,1.56,1.29.44.57.66,1.3.66,2.19,0,.84-.22,1.61-.65,2.31ZM441.27,76.03h-3.95v11.98h-3.62v-11.98h-3.94v-2.9h11.51v2.9ZM461.93,88.01l-.89-2.63h-5.55l-.89,2.63h-3.8l5.39-14.88h4.19l5.39,14.88h-3.84ZM480.2,83.66c.69.78,1.6,1.17,2.71,1.17.7,0,1.31-.17,1.86-.49.54-.33.96-.8,1.26-1.42h3.98c-.38,1.43-1.09,2.59-2.13,3.48-1.03.9-2.29,1.45-3.78,1.65v.82c.74,0,1.38.21,1.93.61.55.4.83,1,.83,1.81s-.29,1.42-.87,1.83c-.58.42-1.27.63-2.08.63h-3.26v-1.99h2.77c.29,0,.5-.05.64-.13.14-.08.21-.23.21-.42,0-.2-.07-.34-.21-.42-.14-.08-.35-.11-.64-.11h-1.5v-2.63c-1.27-.14-2.4-.55-3.37-1.22-.98-.67-1.73-1.55-2.27-2.64-.54-1.09-.81-2.3-.81-3.65,0-1.46.32-2.77.96-3.93.63-1.15,1.52-2.05,2.66-2.69,1.14-.64,2.43-.96,3.87-.96,1.76,0,3.27.46,4.53,1.4,1.26.93,2.1,2.2,2.52,3.81h-3.98c-.3-.62-.72-1.09-1.26-1.42-.55-.32-1.16-.49-1.86-.49-1.11,0-2.02.39-2.71,1.17-.69.78-1.04,1.81-1.04,3.11s.35,2.34,1.04,3.12ZM511.08,88.01l-.89-2.63h-5.55l-.89,2.63h-3.79l5.38-14.88h4.2l5.38,14.88h-3.84ZM538.87,84.46c-.68,1.16-1.6,2.07-2.76,2.72-1.15.65-2.43.97-3.83.97s-2.68-.32-3.85-.97c-1.17-.65-2.09-1.56-2.78-2.72-.68-1.17-1.02-2.48-1.02-3.94s.34-2.76,1.02-3.92c.69-1.16,1.61-2.06,2.78-2.71s2.45-.98,3.85-.98,2.68.33,3.84.98c1.17.65,2.09,1.55,2.76,2.71.67,1.16,1.01,2.47,1.01,3.92s-.34,2.77-1.02,3.94ZM532.28,76.2c-1.2,0-2.16.39-2.87,1.17-.72.77-1.07,1.83-1.07,3.15s.35,2.37,1.07,3.15c.71.79,1.67,1.18,2.87,1.18s2.14-.4,2.85-1.19c.71-.79,1.07-1.84,1.07-3.14s-.36-2.36-1.07-3.14c-.71-.79-1.67-1.18-2.85-1.18ZM505.59,82.58h3.67l-1.84-5.45-1.83,5.45ZM456.44,82.58h3.67l-1.85-5.45-1.82,5.45ZM458.26,77.13l-1.82,5.45h3.67l-1.85-5.45ZM507.42,77.13l-1.83,5.45h3.67l-1.84-5.45ZM507.42,77.13l-1.83,5.45h3.67l-1.84-5.45ZM458.26,77.13l-1.82,5.45h3.67l-1.85-5.45ZM458.26,77.13l-1.82,5.45h3.67l-1.85-5.45ZM458.26,77.13l-1.82,5.45h3.67l-1.85-5.45Z"/>
</svg>